<svg width="current" height="current" viewBox="0 0 1668 392" fill="none" xmlns="http://www.w3.org/2000/svg">
<path d="M83.5325 179.72L69.8182 62L224 208.106H141.299L152.104 330L0 179.72L83.5325 179.72Z" fill="black"/>
<path d="M411.1 264.3L400.6 234C390.2 234 379.7 232.4 369.1 229.2C366.9 242 365.8 251.2 365.8 256.8C365.8 276.2 368.8 290.7 374.8 300.3C362.8 309.3 350.3 313.8 337.3 313.8C324.3 313.8 315 310.1 309.4 302.7C303.8 295.1 301 283.9 301 269.1C301 254.1 307.3 211.8 319.9 142.2L304 110.1C326.4 95.7 347 88.5 365.8 88.5C380.2 88.5 391.3 91.5 399.1 97.5C414.1 91.5 427.6 88.5 439.6 88.5C458 88.5 472.6 94.7 483.4 107.1C494.2 119.5 499.6 134.4 499.6 151.8C499.6 164.8 496.3 177.4 489.7 189.6C483.1 201.6 473.4 211.4 460.6 219C467.4 238.4 475 255.1 483.4 269.1C492 283.1 500.5 292.4 508.9 297C504.7 301.4 498.2 305.2 489.4 308.4C480.8 311.8 473 313.5 466 313.5C452.4 313.5 441.5 310.1 433.3 303.3C425.1 296.3 417.7 283.3 411.1 264.3ZM382.3 196.5C398.3 196.5 410.7 192.4 419.5 184.2C428.5 176 433 167.2 433 157.8C433 148.4 430.4 140.9 425.2 135.3C420 129.7 412.6 126.9 403 126.9C397.8 126.9 392.6 127.6 387.4 129C381 167.2 377 189.6 375.4 196.2C376.8 196.4 379.1 196.5 382.3 196.5ZM555.52 313.8C543.72 313.8 535.02 310.1 529.42 302.7C523.82 295.1 521.02 283.9 521.02 269.1C521.02 254.1 527.32 211.8 539.92 142.2L524.02 110.1C546.62 95.5 567.22 88.2 585.82 88.2C597.62 88.2 604.92 93.8 607.72 105C630.32 104.4 658.52 99.3 692.32 89.7C693.92 96.3 694.72 102.8 694.72 109.2C694.72 125.4 689.32 137.6 678.52 145.8C667.92 154 654.22 158.1 637.42 158.1C626.02 158.1 614.82 155.7 603.82 150.9C602.22 159.9 599.42 174.6 595.42 195C602.82 196.4 609.12 197.1 614.32 197.1C622.52 195.5 631.52 193.2 641.32 190.2C642.32 193.6 642.82 199.2 642.82 207C642.82 214.6 639.72 220.7 633.52 225.3C627.32 229.9 620.32 232.2 612.52 232.2C604.92 232.2 597.12 231.3 589.12 229.5C586.92 242.1 585.82 254 585.82 265.2H634.42C649.62 263 664.92 259.1 680.32 253.5C681.52 257.1 682.12 262 682.12 268.2C682.12 280 678.62 290.5 671.62 299.7C664.82 308.9 655.32 313.5 643.12 313.5C636.72 313.5 627.32 312.2 614.92 309.6C602.72 307.2 593.62 305.7 587.62 305.1C578.02 310.9 567.32 313.8 555.52 313.8ZM876.562 186.3L875.662 258.6H883.462C894.662 234.8 904.962 209.4 914.362 182.4C923.762 155.2 928.462 134.5 928.462 120.3C928.462 114.7 927.362 109.3 925.162 104.1C940.362 93.7 954.362 88.5 967.162 88.5C987.162 88.5 997.162 99.8 997.162 122.4C997.162 133.6 994.062 147.8 987.862 165C981.862 182 972.862 203.4 960.862 229.2C948.862 254.8 942.462 268.6 941.662 270.6L945.862 287.1C928.662 304.7 907.162 313.5 881.362 313.5C855.562 313.5 839.262 308.8 832.462 299.4C815.662 308.8 797.662 313.5 778.462 313.5C759.262 313.5 745.462 310.7 737.062 305.1C728.662 299.5 724.462 290.1 724.462 276.9L724.762 221.7C724.762 175.9 719.162 143.6 707.962 124.8C702.762 116.2 696.362 109.3 688.762 104.1C702.362 93.7 717.962 88.5 735.562 88.5C751.562 88.5 763.462 94.8 771.262 107.4C779.062 119.8 784.162 134.7 786.562 152.1C788.562 167.9 789.562 186.6 789.562 208.2L788.662 258.6H796.462C807.862 233.8 817.462 204.4 825.262 170.4C823.262 151.2 818.862 131.9 812.062 112.5C819.462 106.7 826.362 102.6 832.762 100.2C839.162 97.6 847.662 96.3 858.262 96.3C880.062 96.3 890.962 106.4 890.962 126.6C890.962 138.6 886.162 158.5 876.562 186.3ZM1001.54 214.2C1001.54 176.2 1012.14 145.8 1033.34 123C1054.54 100 1083.54 88.5 1120.34 88.5C1132.14 88.5 1140.54 90.9 1145.54 95.7C1150.74 100.3 1153.34 107.5 1153.34 117.3C1153.34 118.7 1153.14 121.4 1152.74 125.4C1160.14 119.4 1168.34 116.4 1177.34 116.4C1189.54 116.4 1199.94 121.9 1208.54 132.9C1217.34 143.7 1221.74 159.4 1221.74 180C1221.74 200.6 1218.44 219.5 1211.84 236.7C1205.24 253.9 1196.44 268 1185.44 279C1174.64 290 1162.24 298.5 1148.24 304.5C1134.44 310.5 1120.14 313.5 1105.34 313.5C1073.34 313.5 1048.04 304.4 1029.44 286.2C1010.84 267.8 1001.54 243.8 1001.54 214.2ZM1151.24 228.3C1138.44 212.7 1132.04 195.9 1132.04 177.9C1132.04 159.9 1136.04 145.4 1144.04 134.4C1140.44 133.8 1136.84 133.5 1133.24 133.5C1119.04 133.5 1106.74 137.8 1096.34 146.4C1076.74 162.4 1066.94 184.6 1066.94 213C1066.94 229.2 1070.54 242.7 1077.74 253.5C1084.94 264.3 1094.94 269.7 1107.74 269.7C1117.54 269.7 1126.44 265.9 1134.44 258.3C1142.64 250.5 1148.24 240.5 1151.24 228.3ZM1354.46 264.3L1343.96 234C1333.56 234 1323.06 232.4 1312.46 229.2C1310.26 242 1309.16 251.2 1309.16 256.8C1309.16 276.2 1312.16 290.7 1318.16 300.3C1306.16 309.3 1293.66 313.8 1280.66 313.8C1267.66 313.8 1258.36 310.1 1252.76 302.7C1247.16 295.1 1244.36 283.9 1244.36 269.1C1244.36 254.1 1250.66 211.8 1263.26 142.2L1247.36 110.1C1269.76 95.7 1290.36 88.5 1309.16 88.5C1323.56 88.5 1334.66 91.5 1342.46 97.5C1357.46 91.5 1370.96 88.5 1382.96 88.5C1401.36 88.5 1415.96 94.7 1426.76 107.1C1437.56 119.5 1442.96 134.4 1442.96 151.8C1442.96 164.8 1439.66 177.4 1433.06 189.6C1426.46 201.6 1416.76 211.4 1403.96 219C1410.76 238.4 1418.36 255.1 1426.76 269.1C1435.36 283.1 1443.86 292.4 1452.26 297C1448.06 301.4 1441.56 305.2 1432.76 308.4C1424.16 311.8 1416.36 313.5 1409.36 313.5C1395.76 313.5 1384.86 310.1 1376.66 303.3C1368.46 296.3 1361.06 283.3 1354.46 264.3ZM1325.66 196.5C1341.66 196.5 1354.06 192.4 1362.86 184.2C1371.86 176 1376.36 167.2 1376.36 157.8C1376.36 148.4 1373.76 140.9 1368.56 135.3C1363.36 129.7 1355.96 126.9 1346.36 126.9C1341.16 126.9 1335.96 127.6 1330.76 129C1324.36 167.2 1320.36 189.6 1318.76 196.2C1320.16 196.4 1322.46 196.5 1325.66 196.5ZM1500.68 313.8C1487.68 313.8 1478.38 310.1 1472.78 302.7C1467.18 295.1 1464.38 283.9 1464.38 269.1C1464.38 254.1 1470.68 211.8 1483.28 142.2L1467.38 110.1C1489.98 95.5 1510.58 88.2 1529.18 88.2C1544.58 88.2 1552.28 97.6 1552.28 116.4C1552.28 122 1548.08 146.6 1539.68 190.2L1553.78 178.5C1582.98 154.1 1597.58 133.3 1597.58 116.1C1597.58 110.9 1596.78 106.2 1595.18 102C1609.98 93 1623.98 88.5 1637.18 88.5C1656.78 88.5 1666.58 98.5 1666.58 118.5C1666.58 140.9 1646.68 163.6 1606.88 186.6C1625.48 246.2 1645.58 283 1667.18 297C1662.78 301.4 1656.18 305.2 1647.38 308.4C1638.78 311.8 1631.08 313.5 1624.28 313.5C1610.68 313.5 1599.78 310 1591.58 303C1583.38 296 1575.98 283.1 1569.38 264.3L1551.98 215.4L1533.38 225.3C1530.58 241.7 1529.18 252.2 1529.18 256.8C1529.18 276.2 1532.18 290.7 1538.18 300.3C1526.18 309.3 1513.68 313.8 1500.68 313.8Z" fill="black"/>
</svg>
