<svg width="43" height="40" viewBox="0 0 43 40" fill="none" xmlns="http://www.w3.org/2000/svg">
<path fill-rule="evenodd" clip-rule="evenodd" d="M20.019 5.85003C20.6992 5.85003 21.1146 5.8533 21.3999 5.8671L21.3999 11.0964C21.3998 11.4953 21.3998 11.8991 21.4284 12.2439C21.4602 12.6274 21.5367 13.0988 21.784 13.5767C22.1211 14.2281 22.6561 14.7524 23.3076 15.0792C23.7831 15.3178 24.2511 15.3915 24.6343 15.4223C24.9808 15.4502 25.3877 15.4501 25.7942 15.45L31.1339 15.45C31.1466 15.726 31.1499 16.1284 31.1499 16.7812V20.0277C32.311 19.4612 33.6888 19.4612 34.8499 20.0277L34.85 16.6035C34.8506 15.6028 34.8511 14.8028 34.6626 14.0295C34.5652 13.6303 34.4309 13.2418 34.2619 12.8687C34.2493 12.8394 34.2359 12.8106 34.2219 12.7821C34.1121 12.549 33.9887 12.3222 33.8522 12.1027C33.4319 11.4275 32.8601 10.8651 32.1403 10.1573L26.707 4.80758C25.9865 4.0973 25.4165 3.53542 24.7335 3.12336C24.5122 2.9898 24.2836 2.86926 24.049 2.76218C24.0199 2.7482 23.9903 2.73496 23.9604 2.72249C23.5849 2.55759 23.1946 2.42691 22.7942 2.33227C22.0186 2.14893 21.2161 2.14939 20.1956 2.14997L14.7259 2.15003C13.4238 2.15001 12.3372 2.14999 11.4497 2.22139C10.5246 2.29581 9.65525 2.45668 8.83213 2.86963C7.56911 3.50327 6.53689 4.5171 5.88821 5.77063C5.46378 6.5908 5.29876 7.45731 5.22266 8.37442C5.14985 9.25181 5.14988 10.3246 5.1499 11.6043V28.3957C5.14988 29.6754 5.14985 30.7483 5.22266 31.6257C5.29876 32.5428 5.46378 33.4093 5.88821 34.2294C6.53689 35.483 7.56911 36.4968 8.83213 37.1304C9.65525 37.5434 10.5246 37.7043 11.4497 37.7787C12.3372 37.8501 13.4237 37.8501 14.7259 37.85H21.0977C20.5496 36.735 20.4839 35.3803 21.0958 34.15H14.7999C13.4047 34.15 12.4679 34.1486 11.7464 34.0906C11.0456 34.0342 10.711 33.9335 10.4913 33.8233C9.91971 33.5365 9.46037 33.0818 9.17429 32.5289C9.06737 32.3223 8.96672 32.0034 8.90999 31.3197C8.85139 30.6135 8.84991 29.6952 8.84991 28.32V11.68C8.84991 10.3049 8.85139 9.38656 8.90999 8.68039C8.96672 7.99668 9.06737 7.67774 9.17429 7.47113C9.46037 6.9183 9.91972 6.46352 10.4913 6.17677C10.711 6.06656 11.0456 5.96584 11.7464 5.90947C12.4679 5.85143 13.4047 5.85003 14.7999 5.85003H20.019ZM25.0999 11.04V8.41782L28.4842 11.75H25.8499C25.5025 11.75 25.2735 11.7493 25.1055 11.7436C25.1006 11.5832 25.0999 11.3652 25.0999 11.04Z" fill="#3C4651"/>
<path fill-rule="evenodd" clip-rule="evenodd" d="M41.1316 36.9999C41.9303 36.9999 42.4067 36.1098 41.9637 35.4452L33.8322 23.248C33.648 22.9717 33.3606 22.824 33.0661 22.8049C32.7277 22.7829 32.3799 22.9306 32.1683 23.248L24.0368 35.4453C23.6147 36.0785 24.0273 36.9166 24.7582 36.9942C24.7823 36.9967 24.8067 36.9984 24.8315 36.9993C24.8438 36.9997 24.8562 36.9999 24.8687 36.9999H41.1316ZM33.0002 26.4999C33.5525 26.4999 34.2502 26.9477 34.2502 27.4999L34.0002 30.9999C34.0002 31.5522 33.5525 31.9999 33.0002 31.9999C32.448 31.9999 32.0002 31.5522 32.0002 30.9999L31.7502 27.4999C31.7502 26.9477 32.448 26.4999 33.0002 26.4999ZM34.0002 33.9999C34.0002 34.5522 33.5525 34.9999 33.0002 34.9999C32.448 34.9999 32.0002 34.5522 32.0002 33.9999C32.0002 33.4477 32.448 32.9999 33.0002 32.9999C33.5525 32.9999 34.0002 33.4477 34.0002 33.9999Z" fill="url(#paint0_linear_20_680)"/>
<defs>
<linearGradient id="paint0_linear_20_680" x1="23.2964" y1="22.8027" x2="43.8237" y2="25.94" gradientUnits="userSpaceOnUse">
<stop offset="0.0178571" stop-color="#FA9E00"/>
<stop offset="1" stop-color="#FF8E26"/>
</linearGradient>
</defs>
</svg>
