<svg width="11" height="13" viewBox="0 0 11 13" fill="none" xmlns="http://www.w3.org/2000/svg">
<path d="M2.94484 13H8.06073C8.91802 13 9.46913 12.4648 9.51366 11.5786L9.88664 3.29172H10.499C10.7829 3.29172 11 3.06153 11 2.77379C11 2.48606 10.7773 2.26737 10.499 2.26737H8.02733V1.40416C8.02733 0.517928 7.48178 0 6.55213 0H4.43674C3.50709 0 2.96154 0.517928 2.96154 1.40416V2.26737H0.501012C0.222672 2.26737 0 2.49181 0 2.77379C0 3.06729 0.222672 3.29172 0.501012 3.29172H1.11336L1.48634 11.5786C1.53087 12.4706 2.07642 13 2.94484 13ZM4.00253 1.45595C4.00253 1.16246 4.20294 0.972554 4.50911 0.972554H6.47976C6.78593 0.972554 6.98634 1.16246 6.98634 1.45595V2.26737H4.00253V1.45595ZM3.05617 11.9699C2.75 11.9699 2.52733 11.734 2.51063 11.3944L2.13765 3.29172H8.84565L8.48381 11.3944C8.47267 11.7397 8.25557 11.9699 7.93826 11.9699H3.05617ZM3.85779 11.0434C4.09717 11.0434 4.24747 10.888 4.2419 10.6578L4.0749 4.63834C4.06933 4.40815 3.91346 4.25852 3.68522 4.25852C3.45142 4.25852 3.30111 4.4139 3.30668 4.64409L3.47368 10.6636C3.47925 10.8938 3.63512 11.0434 3.85779 11.0434ZM5.5 11.0434C5.73381 11.0434 5.89524 10.8938 5.89524 10.6636V4.64409C5.89524 4.4139 5.73381 4.25852 5.5 4.25852C5.26619 4.25852 5.11032 4.4139 5.11032 4.64409V10.6636C5.11032 10.8938 5.26619 11.0434 5.5 11.0434ZM7.14221 11.0491C7.36488 11.0491 7.52075 10.8938 7.52632 10.6636L7.69332 4.64409C7.69889 4.4139 7.54858 4.26428 7.31478 4.26428C7.08654 4.26428 6.93067 4.4139 6.9251 4.64409L6.7581 10.6636C6.75253 10.888 6.90283 11.0491 7.14221 11.0491Z" fill="#BEBEBE"/>
</svg>
