<svg xmlns="http://www.w3.org/2000/svg" width="24" height="24" fill="none" viewBox="0 0 24 24" role="button" aria-pressed="true" style="flex-shrink: 0;"><path fill="#cdd2d6" d="M18.879 17.75 4.456 5.92 3.314 7.314 5.16 8.826a10.659 10.659 0 0 0-1.766 2.436 1 1 0 0 0 1.767.937c.421-.794.946-1.5 1.552-2.099l2.07 1.698a3.5 3.5 0 0 0 5.2 4.265l3.754 3.079 1.142-1.392ZM11.27 9.756l4.23 3.468v-.044a3.5 3.5 0 0 0-4.23-3.424Z"></path><path fill="#cdd2d6" d="M7.784 6.896 9.53 8.327a6.863 6.863 0 0 1 2.428-.38h.053a6.98 6.98 0 0 1 3.903 1.084c1.2.752 2.214 1.86 2.922 3.22a1 1 0 0 0 1.775-.922c-.863-1.658-2.115-3.041-3.637-3.994a8.98 8.98 0 0 0-4.992-1.388 8.931 8.931 0 0 0-4.197.95Z"></path></svg>