<svg xmlns="http://www.w3.org/2000/svg" width="24" height="24" fill="none" viewBox="0 0 24 24" style="flex-shrink: 0;"><path fill="currentColor" d="M14.563 9.423c.66.66 1.73.66 2.391 0 .66-.659.66-1.727 0-2.386a1.694 1.694 0 0 0-2.391 0 1.685 1.685 0 0 0 0 2.386Z"></path><path fill="currentColor" d="M19.173 4.823a6.244 6.244 0 0 0-10.45 2.84 6.212 6.212 0 0 0 .169 3.667l-5.633 5.621-.259.623v2.545l.883.881h3.906l.883-.88v-1.227l.663-.661h2.121l.883-.881v-1.894l.345-.344c1.178.417 2.435.449 3.642.137a6.238 6.238 0 0 0 3.526-2.427 6.214 6.214 0 0 0-.68-8Zm-4.034-.046a4.477 4.477 0 0 1 2.786 1.292 4.458 4.458 0 0 1-2.041 7.475c-1.037.268-2.086.185-3.025-.264l-.564-.27-1.721 1.717v1.743h-1.97l-1.698 1.694v1.074h-2.14v-1.3L11 11.719l-.27-.563a4.454 4.454 0 0 1 1.446-5.572 4.48 4.48 0 0 1 2.963-.806Z" fill-rule="evenodd" clip-rule="evenodd"></path></svg>