<svg xmlns="http://www.w3.org/2000/svg" width="24" height="24" fill="none" viewBox="0 0 24 24" role="button" aria-pressed="false" style="flex-shrink: 0;"><path fill="#cdd2d6" d="M16.973 7.336a8.98 8.98 0 0 0-4.992-1.39 8.995 8.995 0 0 0-4.956 1.375c-1.513.94-2.762 2.304-3.631 3.941a1 1 0 0 0 1.767.938c.713-1.345 1.724-2.438 2.919-3.18a6.994 6.994 0 0 1 3.877-1.073h.053a6.98 6.98 0 0 1 3.903 1.084c1.2.752 2.214 1.86 2.922 3.221a1 1 0 0 0 1.775-.923c-.863-1.658-2.115-3.041-3.637-3.993Z"></path><path fill="#cdd2d6" d="M15.5 13.18a3.5 3.5 0 1 1-7 0 3.5 3.5 0 0 1 7 0Z"></path></svg>