<svg width="current" height="current" viewBox="0 0 1367 226" fill="none" xmlns="http://www.w3.org/2000/svg">
<path d="M110.1 176.3L99.6 146C89.2 146 78.7 144.4 68.1 141.2C65.9 154 64.8 163.2 64.8 168.8C64.8 188.2 67.8 202.7 73.8 212.3C61.8 221.3 49.3 225.8 36.3 225.8C23.3 225.8 14 222.1 8.4 214.7C2.8 207.1 7.15256e-07 195.9 7.15256e-07 181.1C7.15256e-07 166.1 6.3 123.8 18.9 54.2L3 22.1C25.4 7.69999 46 0.499993 64.8 0.499993C79.2 0.499993 90.3 3.49999 98.1 9.49998C113.1 3.49999 126.6 0.499993 138.6 0.499993C157 0.499993 171.6 6.69999 182.4 19.1C193.2 31.5 198.6 46.4 198.6 63.8C198.6 76.8 195.3 89.4 188.7 101.6C182.1 113.6 172.4 123.4 159.6 131C166.4 150.4 174 167.1 182.4 181.1C191 195.1 199.5 204.4 207.9 209C203.7 213.4 197.2 217.2 188.4 220.4C179.8 223.8 172 225.5 165 225.5C151.4 225.5 140.5 222.1 132.3 215.3C124.1 208.3 116.7 195.3 110.1 176.3ZM81.3 108.5C97.3 108.5 109.7 104.4 118.5 96.2C127.5 88 132 79.2 132 69.8C132 60.4 129.4 52.9 124.2 47.3C119 41.7 111.6 38.9 102 38.9C96.8 38.9 91.6 39.6 86.4 41C80 79.2 76 101.6 74.4 108.2C75.8 108.4 78.1 108.5 81.3 108.5ZM254.52 225.8C242.72 225.8 234.02 222.1 228.42 214.7C222.82 207.1 220.02 195.9 220.02 181.1C220.02 166.1 226.32 123.8 238.92 54.2L223.02 22.1C245.62 7.49999 266.22 0.199997 284.82 0.199997C296.62 0.199997 303.92 5.8 306.72 17C329.32 16.4 357.52 11.3 391.32 1.7C392.92 8.29999 393.72 14.8 393.72 21.2C393.72 37.4 388.32 49.6 377.52 57.8C366.92 66 353.22 70.1 336.42 70.1C325.02 70.1 313.82 67.7 302.82 62.9C301.22 71.9 298.42 86.6 294.42 107C301.82 108.4 308.12 109.1 313.32 109.1C321.52 107.5 330.52 105.2 340.32 102.2C341.32 105.6 341.82 111.2 341.82 119C341.82 126.6 338.72 132.7 332.52 137.3C326.32 141.9 319.32 144.2 311.52 144.2C303.92 144.2 296.12 143.3 288.12 141.5C285.92 154.1 284.82 166 284.82 177.2H333.42C348.62 175 363.92 171.1 379.32 165.5C380.52 169.1 381.12 174 381.12 180.2C381.12 192 377.62 202.5 370.62 211.7C363.82 220.9 354.32 225.5 342.12 225.5C335.72 225.5 326.32 224.2 313.92 221.6C301.72 219.2 292.62 217.7 286.62 217.1C277.02 222.9 266.32 225.8 254.52 225.8ZM575.562 98.3L574.662 170.6H582.462C593.662 146.8 603.962 121.4 613.362 94.4C622.762 67.2 627.462 46.5 627.462 32.3C627.462 26.7 626.362 21.3 624.162 16.1C639.362 5.69999 653.362 0.499993 666.162 0.499993C686.162 0.499993 696.162 11.8 696.162 34.4C696.162 45.6 693.062 59.8 686.862 77C680.862 94 671.862 115.4 659.862 141.2C647.862 166.8 641.462 180.6 640.662 182.6L644.862 199.1C627.662 216.7 606.162 225.5 580.362 225.5C554.562 225.5 538.262 220.8 531.462 211.4C514.662 220.8 496.662 225.5 477.462 225.5C458.262 225.5 444.462 222.7 436.062 217.1C427.662 211.5 423.462 202.1 423.462 188.9L423.762 133.7C423.762 87.9 418.162 55.6 406.962 36.8C401.762 28.2 395.362 21.3 387.762 16.1C401.362 5.69999 416.962 0.499993 434.562 0.499993C450.562 0.499993 462.462 6.79999 470.262 19.4C478.062 31.8 483.162 46.7 485.562 64.1C487.562 79.9 488.562 98.6 488.562 120.2L487.662 170.6H495.462C506.862 145.8 516.462 116.4 524.262 82.4C522.262 63.2 517.862 43.9 511.062 24.5C518.462 18.7 525.362 14.6 531.762 12.2C538.162 9.59998 546.662 8.29998 557.262 8.29998C579.062 8.29998 589.962 18.4 589.962 38.6C589.962 50.6 585.162 70.5 575.562 98.3ZM700.535 126.2C700.535 88.2 711.135 57.8 732.335 35C753.535 12 782.535 0.499993 819.335 0.499993C831.135 0.499993 839.535 2.89999 844.535 7.69999C849.735 12.3 852.335 19.5 852.335 29.3C852.335 30.7 852.135 33.4 851.735 37.4C859.135 31.4 867.335 28.4 876.335 28.4C888.535 28.4 898.935 33.9 907.535 44.9C916.335 55.7 920.735 71.4 920.735 92C920.735 112.6 917.435 131.5 910.835 148.7C904.235 165.9 895.435 180 884.435 191C873.635 202 861.235 210.5 847.235 216.5C833.435 222.5 819.135 225.5 804.335 225.5C772.335 225.5 747.035 216.4 728.435 198.2C709.835 179.8 700.535 155.8 700.535 126.2ZM850.235 140.3C837.435 124.7 831.035 107.9 831.035 89.9C831.035 71.9 835.035 57.4 843.035 46.4C839.435 45.8 835.835 45.5 832.235 45.5C818.035 45.5 805.735 49.8 795.335 58.4C775.735 74.4 765.935 96.6 765.935 125C765.935 141.2 769.535 154.7 776.735 165.5C783.935 176.3 793.935 181.7 806.735 181.7C816.535 181.7 825.435 177.9 833.435 170.3C841.635 162.5 847.235 152.5 850.235 140.3ZM1053.46 176.3L1042.96 146C1032.56 146 1022.06 144.4 1011.46 141.2C1009.26 154 1008.16 163.2 1008.16 168.8C1008.16 188.2 1011.16 202.7 1017.16 212.3C1005.16 221.3 992.659 225.8 979.659 225.8C966.659 225.8 957.359 222.1 951.759 214.7C946.159 207.1 943.359 195.9 943.359 181.1C943.359 166.1 949.659 123.8 962.259 54.2L946.359 22.1C968.759 7.69999 989.359 0.499993 1008.16 0.499993C1022.56 0.499993 1033.66 3.49999 1041.46 9.49998C1056.46 3.49999 1069.96 0.499993 1081.96 0.499993C1100.36 0.499993 1114.96 6.69999 1125.76 19.1C1136.56 31.5 1141.96 46.4 1141.96 63.8C1141.96 76.8 1138.66 89.4 1132.06 101.6C1125.46 113.6 1115.76 123.4 1102.96 131C1109.76 150.4 1117.36 167.1 1125.76 181.1C1134.36 195.1 1142.86 204.4 1151.26 209C1147.06 213.4 1140.56 217.2 1131.76 220.4C1123.16 223.8 1115.36 225.5 1108.36 225.5C1094.76 225.5 1083.86 222.1 1075.66 215.3C1067.46 208.3 1060.06 195.3 1053.46 176.3ZM1024.66 108.5C1040.66 108.5 1053.06 104.4 1061.86 96.2C1070.86 88 1075.36 79.2 1075.36 69.8C1075.36 60.4 1072.76 52.9 1067.56 47.3C1062.36 41.7 1054.96 38.9 1045.36 38.9C1040.16 38.9 1034.96 39.6 1029.76 41C1023.36 79.2 1019.36 101.6 1017.76 108.2C1019.16 108.4 1021.46 108.5 1024.66 108.5ZM1199.68 225.8C1186.68 225.8 1177.38 222.1 1171.78 214.7C1166.18 207.1 1163.38 195.9 1163.38 181.1C1163.38 166.1 1169.68 123.8 1182.28 54.2L1166.38 22.1C1188.98 7.49999 1209.58 0.199997 1228.18 0.199997C1243.58 0.199997 1251.28 9.59999 1251.28 28.4C1251.28 34 1247.08 58.6 1238.68 102.2L1252.78 90.5C1281.98 66.1 1296.58 45.3 1296.58 28.1C1296.58 22.9 1295.78 18.2 1294.18 14C1308.98 4.99999 1322.98 0.499993 1336.18 0.499993C1355.78 0.499993 1365.58 10.5 1365.58 30.5C1365.58 52.9 1345.68 75.6 1305.88 98.6C1324.48 158.2 1344.58 195 1366.18 209C1361.78 213.4 1355.18 217.2 1346.38 220.4C1337.78 223.8 1330.08 225.5 1323.28 225.5C1309.68 225.5 1298.78 222 1290.58 215C1282.38 208 1274.98 195.1 1268.38 176.3L1250.98 127.4L1232.38 137.3C1229.58 153.7 1228.18 164.2 1228.18 168.8C1228.18 188.2 1231.18 202.7 1237.18 212.3C1225.18 221.3 1212.68 225.8 1199.68 225.8Z" fill="black"/>
</svg>
